<svg width="32" height="32" viewBox="0 0 32 32" fill="none" xmlns="http://www.w3.org/2000/svg">
<path fill-rule="evenodd" clip-rule="evenodd" d="M7.99999 5.33333H24C25.4145 5.33333 26.771 5.89524 27.7712 6.89543C28.7714 7.89562 29.3333 9.25218 29.3333 10.6667V24C29.3333 25.4145 28.7714 26.771 27.7712 27.7712C26.771 28.7714 25.4145 29.3333 24 29.3333H7.99999C6.5855 29.3333 5.22895 28.7714 4.22875 27.7712C3.22856 26.771 2.66666 25.4145 2.66666 24V10.6667C2.66666 9.25218 3.22856 7.89562 4.22875 6.89543C5.22895 5.89524 6.5855 5.33333 7.99999 5.33333ZM7.99999 8C7.29275 8 6.61447 8.28095 6.11437 8.78105C5.61427 9.28115 5.33332 9.95942 5.33332 10.6667V24C5.33332 24.7072 5.61427 25.3855 6.11437 25.8856C6.61447 26.3857 7.29275 26.6667 7.99999 26.6667H24C24.7072 26.6667 25.3855 26.3857 25.8856 25.8856C26.3857 25.3855 26.6667 24.7072 26.6667 24V10.6667C26.6667 9.95942 26.3857 9.28115 25.8856 8.78105C25.3855 8.28095 24.7072 8 24 8H7.99999Z" fill="#403230"/>
<path fill-rule="evenodd" clip-rule="evenodd" d="M4 13.3333C4 12.9797 4.14048 12.6406 4.39052 12.3905C4.64057 12.1405 4.97971 12 5.33333 12H26.6667C27.0203 12 27.3594 12.1405 27.6095 12.3905C27.8595 12.6406 28 12.9797 28 13.3333C28 13.687 27.8595 14.0261 27.6095 14.2761C27.3594 14.5262 27.0203 14.6667 26.6667 14.6667H5.33333C4.97971 14.6667 4.64057 14.5262 4.39052 14.2761C4.14048 14.0261 4 13.687 4 13.3333ZM10.6667 2.66667C11.0203 2.66667 11.3594 2.80714 11.6095 3.05719C11.8595 3.30724 12 3.64638 12 4V9.33333C12 9.68696 11.8595 10.0261 11.6095 10.2761C11.3594 10.5262 11.0203 10.6667 10.6667 10.6667C10.313 10.6667 9.97391 10.5262 9.72386 10.2761C9.47381 10.0261 9.33333 9.68696 9.33333 9.33333V4C9.33333 3.64638 9.47381 3.30724 9.72386 3.05719C9.97391 2.80714 10.313 2.66667 10.6667 2.66667ZM21.3333 2.66667C21.687 2.66667 22.0261 2.80714 22.2761 3.05719C22.5262 3.30724 22.6667 3.64638 22.6667 4V9.33333C22.6667 9.68696 22.5262 10.0261 22.2761 10.2761C22.0261 10.5262 21.687 10.6667 21.3333 10.6667C20.9797 10.6667 20.6406 10.5262 20.3905 10.2761C20.1405 10.0261 20 9.68696 20 9.33333V4C20 3.64638 20.1405 3.30724 20.3905 3.05719C20.6406 2.80714 20.9797 2.66667 21.3333 2.66667Z" fill="#403230"/>
<path d="M10.6667 17.3333C10.6667 17.687 10.5262 18.0261 10.2761 18.2761C10.0261 18.5262 9.68696 18.6667 9.33333 18.6667C8.97971 18.6667 8.64057 18.5262 8.39052 18.2761C8.14048 18.0261 8 17.687 8 17.3333C8 16.9797 8.14048 16.6406 8.39052 16.3905C8.64057 16.1405 8.97971 16 9.33333 16C9.68696 16 10.0261 16.1405 10.2761 16.3905C10.5262 16.6406 10.6667 16.9797 10.6667 17.3333ZM10.6667 22.6667C10.6667 23.0203 10.5262 23.3594 10.2761 23.6095C10.0261 23.8595 9.68696 24 9.33333 24C8.97971 24 8.64057 23.8595 8.39052 23.6095C8.14048 23.3594 8 23.0203 8 22.6667C8 22.313 8.14048 21.9739 8.39052 21.7239C8.64057 21.4738 8.97971 21.3333 9.33333 21.3333C9.68696 21.3333 10.0261 21.4738 10.2761 21.7239C10.5262 21.9739 10.6667 22.313 10.6667 22.6667ZM17.3333 17.3333C17.3333 17.687 17.1929 18.0261 16.9428 18.2761C16.6928 18.5262 16.3536 18.6667 16 18.6667C15.6464 18.6667 15.3072 18.5262 15.0572 18.2761C14.8071 18.0261 14.6667 17.687 14.6667 17.3333C14.6667 16.9797 14.8071 16.6406 15.0572 16.3905C15.3072 16.1405 15.6464 16 16 16C16.3536 16 16.6928 16.1405 16.9428 16.3905C17.1929 16.6406 17.3333 16.9797 17.3333 17.3333ZM17.3333 22.6667C17.3333 23.0203 17.1929 23.3594 16.9428 23.6095C16.6928 23.8595 16.3536 24 16 24C15.6464 24 15.3072 23.8595 15.0572 23.6095C14.8071 23.3594 14.6667 23.0203 14.6667 22.6667C14.6667 22.313 14.8071 21.9739 15.0572 21.7239C15.3072 21.4738 15.6464 21.3333 16 21.3333C16.3536 21.3333 16.6928 21.4738 16.9428 21.7239C17.1929 21.9739 17.3333 22.313 17.3333 22.6667ZM24 17.3333C24 17.687 23.8595 18.0261 23.6095 18.2761C23.3594 18.5262 23.0203 18.6667 22.6667 18.6667C22.313 18.6667 21.9739 18.5262 21.7239 18.2761C21.4738 18.0261 21.3333 17.687 21.3333 17.3333C21.3333 16.9797 21.4738 16.6406 21.7239 16.3905C21.9739 16.1405 22.313 16 22.6667 16C23.0203 16 23.3594 16.1405 23.6095 16.3905C23.8595 16.6406 24 16.9797 24 17.3333ZM24 22.6667C24 23.0203 23.8595 23.3594 23.6095 23.6095C23.3594 23.8595 23.0203 24 22.6667 24C22.313 24 21.9739 23.8595 21.7239 23.6095C21.4738 23.3594 21.3333 23.0203 21.3333 22.6667C21.3333 22.313 21.4738 21.9739 21.7239 21.7239C21.9739 21.4738 22.313 21.3333 22.6667 21.3333C23.0203 21.3333 23.3594 21.4738 23.6095 21.7239C23.8595 21.9739 24 22.313 24 22.6667Z" fill="#403230"/>
</svg>
