<svg width="32" height="32" viewBox="0 0 32 32" fill="none" xmlns="http://www.w3.org/2000/svg">
<path fill-rule="evenodd" clip-rule="evenodd" d="M8.33333 5.66669H24.3333C25.7478 5.66669 27.1044 6.22859 28.1046 7.22878C29.1048 8.22898 29.6667 9.58553 29.6667 11V24.3334C29.6667 25.7478 29.1048 27.1044 28.1046 28.1046C27.1044 29.1048 25.7478 29.6667 24.3333 29.6667H8.33333C6.91885 29.6667 5.56229 29.1048 4.5621 28.1046C3.5619 27.1044 3 25.7478 3 24.3334V11C3 9.58553 3.5619 8.22898 4.5621 7.22878C5.56229 6.22859 6.91885 5.66669 8.33333 5.66669ZM8.33333 8.33335C7.62609 8.33335 6.94781 8.61431 6.44771 9.1144C5.94762 9.6145 5.66667 10.2928 5.66667 11V24.3334C5.66667 25.0406 5.94762 25.7189 6.44771 26.219C6.94781 26.7191 7.62609 27 8.33333 27H24.3333C25.0406 27 25.7189 26.7191 26.2189 26.219C26.719 25.7189 27 25.0406 27 24.3334V11C27 10.2928 26.719 9.6145 26.2189 9.1144C25.7189 8.61431 25.0406 8.33335 24.3333 8.33335H8.33333Z" fill="#141D35"/>
<path fill-rule="evenodd" clip-rule="evenodd" d="M4.33331 13.6667C4.33331 13.313 4.47379 12.9739 4.72384 12.7239C4.97389 12.4738 5.31302 12.3333 5.66665 12.3333H27C27.3536 12.3333 27.6927 12.4738 27.9428 12.7239C28.1928 12.9739 28.3333 13.313 28.3333 13.6667C28.3333 14.0203 28.1928 14.3594 27.9428 14.6095C27.6927 14.8595 27.3536 27 27 27H17.2887H5.66665C5.31302 27 4.97389 14.8595 4.72384 14.6095C4.47379 14.3594 4.33331 14.0203 4.33331 13.6667ZM11 3C11.3536 3 11.6927 3.14048 11.9428 3.39052C12.1928 3.64057 12.3333 3.97971 12.3333 4.33333V9.66667C12.3333 10.0203 12.1928 10.3594 11.9428 10.6095C11.6927 10.8595 11.3536 11 11 11C10.6464 11 10.3072 10.8595 10.0572 10.6095C9.80712 10.3594 9.66665 10.0203 9.66665 9.66667V4.33333C9.66665 3.97971 9.80712 3.64057 10.0572 3.39052C10.3072 3.14048 10.6464 3 11 3ZM21.6666 3C22.0203 3 22.3594 3.14048 22.6095 3.39052C22.8595 3.64057 23 3.97971 23 4.33333V9.66667C23 10.0203 22.8595 10.3594 22.6095 10.6095C22.3594 10.8595 22.0203 11 21.6666 11C21.313 11 20.9739 10.8595 20.7238 10.6095C20.4738 10.3594 20.3333 10.0203 20.3333 9.66667V4.33333C20.3333 3.97971 20.4738 3.64057 20.7238 3.39052C20.9739 3.14048 21.313 3 21.6666 3Z" fill="#141D35"/>
</svg>
