<svg width="32" height="32" viewBox="0 0 32 32" fill="none" xmlns="http://www.w3.org/2000/svg">
<path fill-rule="evenodd" clip-rule="evenodd" d="M8.00002 5.33337H24C25.4145 5.33337 26.7711 5.89528 27.7713 6.89547C28.7714 7.89566 29.3334 9.25222 29.3334 10.6667V24C29.3334 25.4145 28.7714 26.7711 27.7713 27.7713C26.7711 28.7715 25.4145 29.3334 24 29.3334H8.00002C6.58553 29.3334 5.22898 28.7715 4.22878 27.7713C3.22859 26.7711 2.66669 25.4145 2.66669 24V10.6667C2.66669 9.25222 3.22859 7.89566 4.22878 6.89547C5.22898 5.89528 6.58553 5.33337 8.00002 5.33337ZM8.00002 8.00004C7.29278 8.00004 6.6145 8.28099 6.1144 8.78109C5.61431 9.28119 5.33335 9.95946 5.33335 10.6667V24C5.33335 24.7073 5.61431 25.3856 6.1144 25.8857C6.6145 26.3858 7.29278 26.6667 8.00002 26.6667H24C24.7073 26.6667 25.3855 26.3858 25.8856 25.8857C26.3857 25.3856 26.6667 24.7073 26.6667 24V10.6667C26.6667 9.95946 26.3857 9.28119 25.8856 8.78109C25.3855 8.28099 24.7073 8.00004 24 8.00004H8.00002Z" fill="#141D35"/>
<path fill-rule="evenodd" clip-rule="evenodd" d="M4 13.3334C4 12.9797 4.14048 12.6406 4.39052 12.3905C4.64057 12.1405 4.97971 12 5.33333 12H26.6667C27.0203 12 27.3594 12.1405 27.6095 12.3905C27.8595 12.6406 28 12.9797 28 13.3334C28 13.687 27.8595 14.0261 27.6095 14.2762C27.3594 14.5262 27.0203 14.6667 26.6667 14.6667H5.33333C4.97971 14.6667 4.64057 14.5262 4.39052 14.2762C4.14048 14.0261 4 13.687 4 13.3334ZM10.6667 2.66669C11.0203 2.66669 11.3594 2.80716 11.6095 3.05721C11.8595 3.30726 12 3.6464 12 4.00002V9.33335C12 9.68698 11.8595 10.0261 11.6095 10.2762C11.3594 10.5262 11.0203 10.6667 10.6667 10.6667C10.313 10.6667 9.97391 10.5262 9.72386 10.2762C9.47381 10.0261 9.33333 9.68698 9.33333 9.33335V4.00002C9.33333 3.6464 9.47381 3.30726 9.72386 3.05721C9.97391 2.80716 10.313 2.66669 10.6667 2.66669ZM21.3333 2.66669C21.687 2.66669 22.0261 2.80716 22.2761 3.05721C22.5262 3.30726 22.6667 3.6464 22.6667 4.00002V9.33335C22.6667 9.68698 22.5262 10.0261 22.2761 10.2762C22.0261 10.5262 21.687 10.6667 21.3333 10.6667C20.9797 10.6667 20.6406 10.5262 20.3905 10.2762C20.1405 10.0261 20 9.68698 20 9.33335V4.00002C20 3.6464 20.1405 3.30726 20.3905 3.05721C20.6406 2.80716 20.9797 2.66669 21.3333 2.66669Z" fill="#141D35"/>
</svg>
