<svg width="33" height="33" viewBox="0 0 33 33" fill="none" xmlns="http://www.w3.org/2000/svg">
<path d="M25.519 4.02931H10.7448C8.52336 4.02931 6.71554 5.83713 6.71554 8.05863V9.40173H5.37243C5.01622 9.40173 4.67459 9.54324 4.42271 9.79512C4.17083 10.047 4.02933 10.3886 4.02933 10.7448C4.02933 11.101 4.17083 11.4427 4.42271 11.6946C4.67459 11.9464 5.01622 12.0879 5.37243 12.0879H6.71554V14.7741H5.37243C5.01622 14.7741 4.67459 14.9157 4.42271 15.1675C4.17083 15.4194 4.02933 15.761 4.02933 16.1173C4.02933 16.4735 4.17083 16.8151 4.42271 17.067C4.67459 17.3189 5.01622 17.4604 5.37243 17.4604H6.71554V20.1466H5.37243C5.01622 20.1466 4.67459 20.2881 4.42271 20.54C4.17083 20.7918 4.02933 21.1335 4.02933 21.4897C4.02933 21.8459 4.17083 22.1875 4.42271 22.4394C4.67459 22.6913 5.01622 22.8328 5.37243 22.8328H6.71554V24.1759C6.71554 26.3974 8.52336 28.2052 10.7448 28.2052H25.519C27.7405 28.2052 29.5483 26.3974 29.5483 24.1759V8.05863C29.5483 5.83713 27.7405 4.02931 25.519 4.02931ZM9.40175 8.05863C9.40175 7.31858 10.0048 6.71552 10.7448 6.71552V9.40173H9.40175V8.05863ZM9.40175 12.0879H10.7448V14.7741H9.40175V12.0879ZM9.40175 17.4604H10.7448V20.1466H9.40175V17.4604ZM9.40175 24.1759V22.8328H10.7448V25.519C10.0048 25.519 9.40175 24.9159 9.40175 24.1759ZM26.8621 24.1759C26.8621 24.9159 26.2591 25.519 25.519 25.519H12.088V6.71552H25.519C26.2591 6.71552 26.8621 7.31858 26.8621 8.05863V24.1759Z" fill="#403230"/>
<path d="M18.8035 16.7888C20.287 16.7888 21.4897 15.5861 21.4897 14.1026C21.4897 12.619 20.287 11.4164 18.8035 11.4164C17.3199 11.4164 16.1172 12.619 16.1172 14.1026C16.1172 15.5861 17.3199 16.7888 18.8035 16.7888Z" fill="#403230"/>
<path d="M18.8035 17.9385C16.7055 17.9385 15.4457 18.8988 15.4457 19.8578C15.4457 20.3373 16.7055 20.8181 18.8035 20.8181C20.7725 20.8181 22.1612 20.3386 22.1612 19.8578C22.1612 18.8988 20.845 17.9385 18.8035 17.9385Z" fill="#403230"/>
</svg>
