<svg width="20" height="20" viewBox="0 0 20 20" fill="none" xmlns="http://www.w3.org/2000/svg">
<path d="M8.83375 16.1575C8.72945 16.5707 8.7226 17.0025 8.81375 17.4188C5.6125 16.9663 3.75 14.705 3.75 12.5V11.875C3.75 11.3777 3.94754 10.9008 4.29917 10.5492C4.65081 10.1975 5.12772 10 5.625 10H13.1537C13.1725 10.4438 13.3125 10.8763 13.5637 11.25H5.625C5.45924 11.25 5.30027 11.3158 5.18306 11.4331C5.06585 11.5503 5 11.7092 5 11.875V12.5C5 14.0662 6.36 15.75 8.83375 16.1575ZM10 1.875C10.9117 1.875 11.786 2.23716 12.4307 2.88182C13.0753 3.52648 13.4375 4.40082 13.4375 5.3125C13.4375 6.22418 13.0753 7.09852 12.4307 7.74318C11.786 8.38784 10.9117 8.75 10 8.75C9.08832 8.75 8.21398 8.38784 7.56932 7.74318C6.92466 7.09852 6.5625 6.22418 6.5625 5.3125C6.5625 4.40082 6.92466 3.52648 7.56932 2.88182C8.21398 2.23716 9.08832 1.875 10 1.875ZM10 3.125C9.41984 3.125 8.86344 3.35547 8.4532 3.7657C8.04297 4.17594 7.8125 4.73234 7.8125 5.3125C7.8125 5.89266 8.04297 6.44906 8.4532 6.8593C8.86344 7.26953 9.41984 7.5 10 7.5C10.5802 7.5 11.1366 7.26953 11.5468 6.8593C11.957 6.44906 12.1875 5.89266 12.1875 5.3125C12.1875 4.73234 11.957 4.17594 11.5468 3.7657C11.1366 3.35547 10.5802 3.125 10 3.125ZM14.48 9.47625L14.8337 8.53875C15.1562 7.68875 16.1613 7.26875 17.0088 7.63L17.4937 7.8375C18.085 8.09 18.575 8.5475 18.6775 9.1625C19.2488 12.5688 16.2925 17.4137 12.89 18.65C12.275 18.8725 11.61 18.7 11.0837 18.3425L10.6512 18.0487C10.4737 17.9291 10.3242 17.7724 10.2131 17.5895C10.1019 17.4065 10.0318 17.2015 10.0076 16.9888C9.98334 16.7761 10.0055 16.5607 10.0726 16.3574C10.1397 16.1541 10.2501 15.9677 10.3963 15.8113L11.0775 15.0525C11.2375 14.8763 11.4417 14.7459 11.6689 14.675C11.8961 14.604 12.1381 14.5949 12.37 14.6488L13.9013 15.0112C15.1154 14.2529 15.7662 13.1863 15.8537 11.8113L14.7563 10.7362C14.5923 10.5761 14.4788 10.3714 14.4298 10.1475C14.3807 9.92367 14.3981 9.69033 14.48 9.47625Z" fill="#141D35"/>
</svg>
