<svg width="32" height="32" viewBox="0 0 32 32" fill="none" xmlns="http://www.w3.org/2000/svg">
<path d="M16 17.8667L19.8667 21.7334C20.1111 21.9779 20.4222 22.1001 20.8 22.1001C21.1778 22.1001 21.4889 21.9779 21.7333 21.7334C21.9778 21.489 22.1 21.1779 22.1 20.8001C22.1 20.4223 21.9778 20.1112 21.7333 19.8667L17.8667 16.0001L21.7333 12.1334C21.9778 11.889 22.1 11.5779 22.1 11.2001C22.1 10.8223 21.9778 10.5112 21.7333 10.2667C21.4889 10.0223 21.1778 9.90008 20.8 9.90008C20.4222 9.90008 20.1111 10.0223 19.8667 10.2667L16 14.1334L12.1333 10.2667C11.8889 10.0223 11.5778 9.90008 11.2 9.90008C10.8222 9.90008 10.5111 10.0223 10.2667 10.2667C10.0222 10.5112 9.9 10.8223 9.9 11.2001C9.9 11.5779 10.0222 11.889 10.2667 12.1334L14.1333 16.0001L10.2667 19.8667C10.0222 20.1112 9.9 20.4223 9.9 20.8001C9.9 21.1779 10.0222 21.489 10.2667 21.7334C10.5111 21.9779 10.8222 22.1001 11.2 22.1001C11.5778 22.1001 11.8889 21.9779 12.1333 21.7334L16 17.8667ZM16 29.3334C14.1556 29.3334 12.4222 28.9832 10.8 28.2827C9.17778 27.5823 7.76667 26.6325 6.56667 25.4334C5.36667 24.2343 4.41689 22.8232 3.71733 21.2001C3.01778 19.577 2.66755 17.8436 2.66667 16.0001C2.66578 14.1565 3.016 12.4232 3.71733 10.8001C4.41867 9.17697 5.36844 7.76586 6.56667 6.56675C7.76489 5.36764 9.176 4.41786 10.8 3.71741C12.424 3.01697 14.1573 2.66675 16 2.66675C17.8427 2.66675 19.576 3.01697 21.2 3.71741C22.824 4.41786 24.2351 5.36764 25.4333 6.56675C26.6316 7.76586 27.5818 9.17697 28.284 10.8001C28.9862 12.4232 29.336 14.1565 29.3333 16.0001C29.3307 17.8436 28.9804 19.577 28.2827 21.2001C27.5849 22.8232 26.6351 24.2343 25.4333 25.4334C24.2316 26.6325 22.8204 27.5827 21.2 28.2841C19.5796 28.9854 17.8462 29.3352 16 29.3334ZM16 26.6667C18.9778 26.6667 21.5 25.6334 23.5667 23.5667C25.6333 21.5001 26.6667 18.9779 26.6667 16.0001C26.6667 13.0223 25.6333 10.5001 23.5667 8.43341C21.5 6.36675 18.9778 5.33341 16 5.33341C13.0222 5.33341 10.5 6.36675 8.43333 8.43341C6.36667 10.5001 5.33333 13.0223 5.33333 16.0001C5.33333 18.9779 6.36667 21.5001 8.43333 23.5667C10.5 25.6334 13.0222 26.6667 16 26.6667Z" fill="white"/>
</svg>
