<svg width="33" height="33" viewBox="0 0 33 33" fill="none" xmlns="http://www.w3.org/2000/svg">
<path d="M25.7661 3.2052H10.1346C7.78414 3.2052 5.8714 5.07464 5.8714 7.37187V8.76076H4.45035C4.07346 8.76076 3.71201 8.90708 3.44551 9.16755C3.17901 9.42802 3.0293 9.78129 3.0293 10.1496C3.0293 10.518 3.17901 10.8713 3.44551 11.1317C3.71201 11.3922 4.07346 11.5385 4.45035 11.5385H5.8714V14.3163H4.45035C4.07346 14.3163 3.71201 14.4626 3.44551 14.7231C3.17901 14.9836 3.0293 15.3368 3.0293 15.7052C3.0293 16.0736 3.17901 16.4268 3.44551 16.6873C3.71201 16.9478 4.07346 17.0941 4.45035 17.0941H5.8714V19.8719H4.45035C4.07346 19.8719 3.71201 20.0182 3.44551 20.2787C3.17901 20.5391 3.0293 20.8924 3.0293 21.2608C3.0293 21.6291 3.17901 21.9824 3.44551 22.2428C3.71201 22.5033 4.07346 22.6496 4.45035 22.6496H5.8714V24.0385C5.8714 26.3358 7.78414 28.2052 10.1346 28.2052H25.7661C28.1166 28.2052 30.0293 26.3358 30.0293 24.0385V7.37187C30.0293 5.07464 28.1166 3.2052 25.7661 3.2052ZM8.71351 7.37187C8.71351 6.60659 9.35156 5.98298 10.1346 5.98298V8.76076H8.71351V7.37187ZM8.71351 11.5385H10.1346V14.3163H8.71351V11.5385ZM8.71351 17.0941H10.1346V19.8719H8.71351V17.0941ZM8.71351 24.0385V22.6496H10.1346V25.4274C9.35156 25.4274 8.71351 24.8038 8.71351 24.0385Z" fill="#141D35"/>
</svg>
