<svg width="30" height="30" viewBox="0 0 30 30" fill="none" xmlns="http://www.w3.org/2000/svg">
<path d="M26.5625 12.43V17.57C26.5615 17.9104 26.4258 18.2365 26.185 18.4771C25.9442 18.7177 25.6179 18.8531 25.2775 18.8538H18.8538V25.2787C18.8528 25.6189 18.7172 25.9449 18.4767 26.1854C18.2361 26.4259 17.9102 26.5615 17.57 26.5625H12.43C12.0896 26.5615 11.7635 26.4258 11.5229 26.185C11.2823 25.9442 11.1469 25.6179 11.1462 25.2775V18.8538H4.72125C4.38108 18.8528 4.05513 18.7172 3.81459 18.4767C3.57406 18.2361 3.43849 17.9102 3.4375 17.57V12.43C3.43849 12.0896 3.57423 11.7635 3.81504 11.5229C4.05584 11.2823 4.38212 11.1469 4.7225 11.1462H11.1462V4.72125C11.1472 4.38108 11.2828 4.05513 11.5233 3.81459C11.7639 3.57406 12.0898 3.43849 12.43 3.4375H17.57C17.9104 3.43849 18.2365 3.57423 18.4771 3.81504C18.7177 4.05584 18.8531 4.38212 18.8538 4.7225V11.1462H25.2787C25.6189 11.1472 25.9449 11.2828 26.1854 11.5233C26.4259 11.7639 26.5615 12.0898 26.5625 12.43Z" stroke="#F6F6F6" stroke-width="1.96875" stroke-linecap="round" stroke-linejoin="round"/>
</svg>
