<svg width="35" height="35" viewBox="0 0 35 35" fill="none" xmlns="http://www.w3.org/2000/svg">
<path d="M6 27.0427V14.2437C6 13.7934 6.10097 13.3668 6.30291 12.9638C6.50485 12.5609 6.78311 12.2291 7.13769 11.9683L15.6704 5.56884C16.1681 5.18961 16.7369 5 17.3769 5C18.0168 5 18.5857 5.18961 19.0834 5.56884L27.6161 11.9683C27.9716 12.2291 28.2503 12.5609 28.4523 12.9638C28.6542 13.3668 28.7547 13.7934 28.7538 14.2437V27.0427C28.7538 27.8249 28.475 28.4947 27.9176 29.0522C27.3601 29.6096 26.6908 29.8879 25.9095 29.8869H20.2211C19.8182 29.8869 19.4807 29.7504 19.2086 29.4774C18.9365 29.2043 18.7999 28.8668 18.799 28.4648V21.3543H15.9548V28.4648C15.9548 28.8678 15.8183 29.2057 15.5452 29.4788C15.2722 29.7518 14.9346 29.8879 14.5327 29.8869H8.84422C8.06206 29.8869 7.39272 29.6087 6.8362 29.0522C6.27968 28.4956 6.00095 27.8258 6 27.0427Z" fill="#141D35"/>
</svg>
