<svg width="35" height="35" viewBox="0 0 35 35" fill="none" xmlns="http://www.w3.org/2000/svg">
<path d="M8.53264 27.0201H12.799V19.9096C12.799 19.5066 12.9355 19.1691 13.2085 18.897C13.4816 18.6249 13.8191 18.4884 14.2211 18.4874H19.9095C20.3125 18.4874 20.6504 18.624 20.9235 18.897C21.1965 19.1701 21.3326 19.5076 21.3316 19.9096V27.0201H25.598V14.2211L17.0653 7.82161L8.53264 14.2211V27.0201ZM5.68842 27.0201V14.2211C5.68842 13.7708 5.78939 13.3441 5.99132 12.9412C6.19326 12.5383 6.47152 12.2064 6.8261 11.9457L15.3588 5.54623C15.8565 5.167 16.4254 4.97739 17.0653 4.97739C17.7052 4.97739 18.2741 5.167 18.7718 5.54623L27.3045 11.9457C27.66 12.2064 27.9388 12.5383 28.1407 12.9412C28.3426 13.3441 28.4431 13.7708 28.4422 14.2211V27.0201C28.4422 27.8023 28.1635 28.4721 27.606 29.0295C27.0485 29.587 26.3792 29.8653 25.598 29.8643H19.9095C19.5066 29.8643 19.1691 29.7278 18.897 29.4548C18.6249 29.1817 18.4884 28.8442 18.4874 28.4422V21.3317H15.6432V28.4422C15.6432 28.8451 15.5067 29.1831 15.2336 29.4562C14.9606 29.7292 14.6231 29.8653 14.2211 29.8643H8.53264C7.75048 29.8643 7.08114 29.5861 6.52462 29.0295C5.9681 28.473 5.68936 27.8032 5.68842 27.0201Z" fill="#403230"/>
</svg>
