<svg width="35" height="35" viewBox="0 0 35 35" fill="none" xmlns="http://www.w3.org/2000/svg">
<path d="M8.5327 27.0201H12.799V19.9096C12.799 19.5066 12.9356 19.1691 13.2086 18.897C13.4816 18.6249 13.8192 18.4884 14.2211 18.4875H19.9096C20.3125 18.4875 20.6505 18.624 20.9235 18.897C21.1966 19.1701 21.3326 19.5076 21.3317 19.9096V27.0201H25.598V14.2211L17.0654 7.82164L8.5327 14.2211V27.0201ZM5.68848 27.0201V14.2211C5.68848 13.7708 5.78945 13.3442 5.99139 12.9412C6.19333 12.5383 6.47159 12.2065 6.82617 11.9458L15.3588 5.54626C15.8566 5.16703 16.4254 4.97742 17.0654 4.97742C17.7053 4.97742 18.2742 5.16703 18.7719 5.54626L27.3046 11.9458C27.6601 12.2065 27.9388 12.5383 28.1408 12.9412C28.3427 13.3442 28.4432 13.7708 28.4422 14.2211V27.0201C28.4422 27.8023 28.1635 28.4721 27.606 29.0296C27.0486 29.587 26.3792 29.8653 25.598 29.8644H19.9096C19.5067 29.8644 19.1691 29.7278 18.897 29.4548C18.6249 29.1817 18.4884 28.8442 18.4875 28.4422V21.3317H15.6433V28.4422C15.6433 28.8452 15.5067 29.1832 15.2337 29.4562C14.9606 29.7293 14.6231 29.8653 14.2211 29.8644H8.5327C7.75054 29.8644 7.0812 29.5861 6.52468 29.0296C5.96816 28.4731 5.68942 27.8032 5.68848 27.0201Z" fill="#141D35"/>
</svg>
