<svg width="20" height="20" viewBox="0 0 20 20" fill="none" xmlns="http://www.w3.org/2000/svg">
<path d="M10 14.1667C10.2361 14.1667 10.4342 14.0867 10.5942 13.9267C10.7542 13.7667 10.8339 13.569 10.8334 13.3334V10.0001C10.8334 9.76397 10.7534 9.56619 10.5934 9.40675C10.4334 9.2473 10.2356 9.1673 10 9.16675C9.76447 9.16619 9.56669 9.24619 9.40669 9.40675C9.24669 9.5673 9.16669 9.76508 9.16669 10.0001V13.3334C9.16669 13.5695 9.24669 13.7676 9.40669 13.9276C9.56669 14.0876 9.76447 14.1673 10 14.1667ZM10 7.50008C10.2361 7.50008 10.4342 7.42008 10.5942 7.26008C10.7542 7.10008 10.8339 6.9023 10.8334 6.66675C10.8328 6.43119 10.7528 6.23342 10.5934 6.07341C10.4339 5.91341 10.2361 5.83342 10 5.83342C9.76391 5.83342 9.56613 5.91341 9.40669 6.07341C9.24724 6.23342 9.16724 6.43119 9.16669 6.66675C9.16613 6.9023 9.24613 7.10036 9.40669 7.26092C9.56724 7.42147 9.76502 7.50119 10 7.50008ZM10 18.3334C8.84724 18.3334 7.76391 18.1145 6.75002 17.6767C5.73613 17.239 4.85419 16.6454 4.10419 15.8959C3.35419 15.1465 2.76058 14.2645 2.32335 13.2501C1.88613 12.2356 1.66724 11.1523 1.66669 10.0001C1.66613 8.84786 1.88502 7.76453 2.32335 6.75008C2.76169 5.73564 3.3553 4.85369 4.10419 4.10425C4.85308 3.3548 5.73502 2.76119 6.75002 2.32341C7.76502 1.88564 8.84835 1.66675 10 1.66675C11.1517 1.66675 12.235 1.88564 13.25 2.32341C14.265 2.76119 15.147 3.3548 15.8959 4.10425C16.6447 4.85369 17.2386 5.73564 17.6775 6.75008C18.1164 7.76453 18.335 8.84786 18.3334 10.0001C18.3317 11.1523 18.1128 12.2356 17.6767 13.2501C17.2406 14.2645 16.647 15.1465 15.8959 15.8959C15.1447 16.6454 14.2628 17.2392 13.25 17.6776C12.2372 18.1159 11.1539 18.3345 10 18.3334ZM10 16.6667C11.8611 16.6667 13.4375 16.0209 14.7292 14.7292C16.0209 13.4376 16.6667 11.8612 16.6667 10.0001C16.6667 8.13897 16.0209 6.56258 14.7292 5.27091C13.4375 3.97925 11.8611 3.33341 10 3.33341C8.13891 3.33341 6.56252 3.97925 5.27085 5.27091C3.97919 6.56258 3.33335 8.13897 3.33335 10.0001C3.33335 11.8612 3.97919 13.4376 5.27085 14.7292C6.56252 16.0209 8.13891 16.6667 10 16.6667Z" fill="#141D35"/>
</svg>
