<svg width="18" height="16" viewBox="0 0 18 16" fill="none" xmlns="http://www.w3.org/2000/svg">
<path d="M9 0.5C13.6957 0.5 17.5 3.37008 17.5 6.90899C17.5 10.4479 13.6957 13.318 9 13.318C8.48351 13.318 7.97882 13.2841 7.48889 13.2164C6.99896 13.5466 4.16562 15.4487 3.89705 15.4854C3.89705 15.4854 3.78785 15.5249 3.6934 15.4741C3.59896 15.4233 3.61667 15.285 3.61667 15.285C3.64618 15.0987 4.35451 12.7677 4.48437 12.3359C2.0908 11.2042 0.5 9.1949 0.5 6.90617C0.5 3.36726 4.30434 0.5 9 0.5ZM3.0441 4.99279C2.77847 4.99279 2.56302 5.1988 2.56302 5.45279C2.56302 5.70678 2.77847 5.91279 3.0441 5.91279H3.80851V8.69821C3.80851 8.94655 4.02986 9.14692 4.29844 9.14692C4.56701 9.14692 4.78837 8.94655 4.78837 8.69821V5.91279H5.55278C5.8184 5.91279 6.03385 5.70678 6.03385 5.45279C6.03385 5.1988 5.8184 4.99279 5.55278 4.99279H3.04115H3.0441ZM7.19965 4.99279C6.8809 4.99843 6.63003 5.22984 6.5474 5.45561L5.37569 8.40753C5.22812 8.8506 5.35799 9.01428 5.4908 9.07355C5.58524 9.11588 5.69444 9.13846 5.80365 9.13846C6.00729 9.13846 6.16372 9.05944 6.21094 8.93244L6.45295 8.32287H7.94931L8.19132 8.92962C8.23854 9.05661 8.39496 9.13563 8.59861 9.13563C8.70781 9.13563 8.81406 9.11306 8.91146 9.07072C9.04722 9.01146 9.17708 8.84778 9.02656 8.40471L7.85486 5.45561C7.77222 5.22984 7.52135 4.99843 7.19965 4.99279ZM12.5387 4.99279C12.2672 4.99279 12.0488 5.20444 12.0488 5.46126V8.66999C12.0488 8.92962 12.2701 9.13846 12.5387 9.13846C12.8073 9.13846 13.0286 8.9268 13.0286 8.66999V7.64839L13.1998 7.4847L14.3479 8.94091C14.4424 9.05944 14.584 9.12717 14.7405 9.12717C14.8467 9.12717 14.95 9.09612 15.0356 9.03404C15.1389 8.95784 15.2068 8.84778 15.2245 8.72361C15.2422 8.59943 15.2097 8.47526 15.13 8.37649L13.9229 6.84691L15.0415 5.78015C15.1182 5.70678 15.1566 5.60518 15.1507 5.49512C15.1448 5.38506 15.0917 5.28064 15.0061 5.1988C14.9146 5.11132 14.7906 5.06052 14.6696 5.06052C14.5634 5.06052 14.4689 5.0972 14.3981 5.16494L13.0316 6.47439V5.4669C13.0316 5.20727 12.8102 4.99843 12.5417 4.99843L12.5387 4.99279ZM9.8441 4.99279C9.56962 4.99279 9.34531 5.20444 9.34531 5.46126V8.64459C9.34531 8.88164 9.55486 9.07355 9.81458 9.07637H11.3877C11.6474 9.07637 11.8569 8.88164 11.8569 8.64459C11.8569 8.40753 11.6444 8.21563 11.3877 8.21563H10.3458V5.46126C10.3458 5.20162 10.1215 4.99279 9.8441 4.99279ZM7.68958 7.49317H6.70972L7.19965 6.16396L7.68958 7.49317Z" fill="#403230"/>
</svg>
