<svg width="20" height="20" viewBox="0 0 20 20" fill="none" xmlns="http://www.w3.org/2000/svg">
<path d="M10 1.66675C14.6025 1.66675 18.3334 5.39758 18.3334 10.0001C18.3334 14.6026 14.6025 18.3334 10 18.3334C5.39752 18.3334 1.66669 14.6026 1.66669 10.0001C1.66669 5.39758 5.39752 1.66675 10 1.66675ZM10 3.33341C8.23191 3.33341 6.53622 4.03579 5.28598 5.28604C4.03573 6.53628 3.33335 8.23197 3.33335 10.0001C3.33335 11.7682 4.03573 13.4639 5.28598 14.7141C6.53622 15.9644 8.23191 16.6667 10 16.6667C11.7681 16.6667 13.4638 15.9644 14.7141 14.7141C15.9643 13.4639 16.6667 11.7682 16.6667 10.0001C16.6667 8.23197 15.9643 6.53628 14.7141 5.28604C13.4638 4.03579 11.7681 3.33341 10 3.33341ZM6.25002 8.75008C6.58154 8.75008 6.89948 8.88178 7.1339 9.1162C7.36832 9.35062 7.50002 9.66856 7.50002 10.0001C7.50002 10.3316 7.36832 10.6495 7.1339 10.884C6.89948 11.1184 6.58154 11.2501 6.25002 11.2501C5.9185 11.2501 5.60056 11.1184 5.36614 10.884C5.13172 10.6495 5.00002 10.3316 5.00002 10.0001C5.00002 9.66856 5.13172 9.35062 5.36614 9.1162C5.60056 8.88178 5.9185 8.75008 6.25002 8.75008ZM10 8.75008C10.3315 8.75008 10.6495 8.88178 10.8839 9.1162C11.1183 9.35062 11.25 9.66856 11.25 10.0001C11.25 10.3316 11.1183 10.6495 10.8839 10.884C10.6495 11.1184 10.3315 11.2501 10 11.2501C9.6685 11.2501 9.35056 11.1184 9.11614 10.884C8.88172 10.6495 8.75002 10.3316 8.75002 10.0001C8.75002 9.66856 8.88172 9.35062 9.11614 9.1162C9.35056 8.88178 9.6685 8.75008 10 8.75008ZM13.75 8.75008C14.0815 8.75008 14.3995 8.88178 14.6339 9.1162C14.8683 9.35062 15 9.66856 15 10.0001C15 10.3316 14.8683 10.6495 14.6339 10.884C14.3995 11.1184 14.0815 11.2501 13.75 11.2501C13.4185 11.2501 13.1006 11.1184 12.8661 10.884C12.6317 10.6495 12.5 10.3316 12.5 10.0001C12.5 9.66856 12.6317 9.35062 12.8661 9.1162C13.1006 8.88178 13.4185 8.75008 13.75 8.75008Z" fill="#141D35"/>
</svg>
