<svg width="24" height="24" viewBox="0 0 24 24" fill="none" xmlns="http://www.w3.org/2000/svg">
<path d="M17 2V4M12 2V4M7 2V4M3.5 13V9C3.5 6.172 3.5 4.757 4.379 3.879C5.257 3 6.672 3 9.5 3H14.5C17.328 3 18.743 3 19.621 3.879C20.5 4.757 20.5 6.172 20.5 9V13C20.5 15.828 20.5 17.243 19.621 18.121C18.743 19 17.328 19 14.5 19H9.5C6.672 19 5.257 19 4.379 18.121C3.5 17.243 3.5 15.828 3.5 13Z" stroke="#1E56A0" stroke-width="1.5" stroke-linecap="round" stroke-linejoin="round"/>
<path d="M8 13.9179H16M8 9.13876H16M3.5 16V9C3.5 6.172 3.5 4.757 4.379 3.879C5.257 3 6.672 3 9.5 3H14.5C17.328 3 18.743 3 19.621 3.879C20.5 4.757 20.5 6.172 20.5 9V16C20.5 18.828 20.5 20.243 19.621 21.121C18.743 22 17.328 22 14.5 22H9.5C6.672 22 5.257 22 4.379 21.121C3.5 20.243 3.5 18.828 3.5 16Z" stroke="#1E56A0" stroke-width="1.5" stroke-linecap="round" stroke-linejoin="round"/>
</svg>
