<svg width="20" height="20" viewBox="0 0 20 20" fill="none" xmlns="http://www.w3.org/2000/svg">
<path fill-rule="evenodd" clip-rule="evenodd" d="M9.76668 1.04159C9.76668 0.820572 9.85448 0.60861 10.0108 0.45233C10.167 0.296049 10.379 0.208252 10.6 0.208252C10.821 0.208252 11.033 0.296049 11.1893 0.45233C11.3456 0.60861 11.4334 0.820572 11.4334 1.04159V2.21825C11.4334 2.43927 11.3456 2.65123 11.1893 2.80751C11.033 2.96379 10.821 3.05159 10.6 3.05159C10.379 3.05159 10.167 2.96379 10.0108 2.80751C9.85448 2.65123 9.76668 2.43927 9.76668 2.21825V1.04159ZM3.07918 7.70825C3.07918 7.92927 3.16698 8.14123 3.32326 8.29751C3.47954 8.45379 3.6915 8.54158 3.91252 8.54158H5.0921C5.31311 8.54158 5.52508 8.45379 5.68136 8.29751C5.83764 8.14123 5.92543 7.92927 5.92543 7.70825C5.92543 7.48724 5.83764 7.27528 5.68136 7.119C5.52508 6.96272 5.31311 6.87492 5.0921 6.87492H3.91252C3.6915 6.87492 3.47954 6.96272 3.32326 7.119C3.16698 7.27528 3.07918 7.48724 3.07918 7.70825ZM18.6458 7.70825C18.6458 7.92927 18.5581 8.14123 18.4018 8.29751C18.2455 8.45379 18.0335 8.54158 17.8125 8.54158H16.6325C16.4115 8.54158 16.1995 8.45379 16.0433 8.29751C15.887 8.14123 15.7992 7.92927 15.7992 7.70825C15.7992 7.48724 15.887 7.27528 16.0433 7.119C16.1995 6.96272 16.4115 6.87492 16.6325 6.87492H17.8125C18.0335 6.87492 18.2455 6.96272 18.4018 7.119C18.5581 7.27528 18.6458 7.48724 18.6458 7.70825ZM5.28085 2.40617C5.20318 2.48324 5.14154 2.57493 5.09948 2.67594C5.05741 2.77695 5.03575 2.88529 5.03575 2.99471C5.03575 3.10413 5.05741 3.21247 5.09948 3.31348C5.14154 3.41449 5.20318 3.50618 5.28085 3.58325L6.11502 4.41492C6.44085 4.73992 6.96918 4.73992 7.29543 4.41492C7.37289 4.33777 7.43434 4.24608 7.47628 4.14512C7.51821 4.04416 7.5398 3.93591 7.5398 3.82659C7.5398 3.71726 7.51821 3.60901 7.47628 3.50805C7.43434 3.40709 7.37289 3.3154 7.29543 3.23825L6.46085 2.40617C6.30413 2.25015 6.09199 2.16255 5.87085 2.16255C5.64971 2.16255 5.43757 2.25015 5.28085 2.40617ZM16.1533 3.40075C16.2308 3.3236 16.2923 3.23191 16.3342 3.13095C16.3761 3.02999 16.3977 2.92174 16.3977 2.81242C16.3977 2.7031 16.3761 2.59485 16.3342 2.49389C16.2923 2.39293 16.2308 2.30124 16.1533 2.22409C15.9966 2.06794 15.7844 1.98026 15.5631 1.98026C15.3419 1.98026 15.1297 2.06794 14.9729 2.22409L14.1383 3.05575C14.0609 3.13291 13.9994 3.22459 13.9575 3.32555C13.9156 3.42651 13.894 3.53476 13.894 3.64409C13.894 3.75341 13.9156 3.86166 13.9575 3.96262C13.9994 4.06358 14.0609 4.15527 14.1383 4.23242C14.4646 4.55742 14.9925 4.55742 15.3188 4.23242L16.1533 3.40075ZM9.92585 7.74534C6.9946 10.4608 4.26335 13.2412 3.13335 14.4062C3.01502 14.5278 2.99918 14.677 3.04752 14.7874C3.14752 15.0149 3.25877 15.2466 3.36627 15.432C3.47377 15.6174 3.61918 15.8291 3.76668 16.0295C3.83918 16.1274 3.9796 16.1895 4.14668 16.1478C5.72168 15.7553 9.49627 14.7891 13.3163 13.6178C13.0496 12.982 12.5733 11.9728 11.7563 10.5616C10.9675 9.1995 10.345 8.29908 9.92585 7.74492M12.0834 3.81325C11.9465 3.66346 11.7597 3.56872 11.5581 3.54682C11.3564 3.52491 11.1536 3.57733 10.9878 3.69425C10.822 3.81118 10.7046 3.98457 10.6575 4.18191C10.6104 4.37925 10.6369 4.58699 10.7321 4.76617C7.09168 7.98409 3.3146 11.8249 1.93668 13.2453C1.38127 13.8187 1.18127 14.6837 1.52168 15.4583C1.63335 15.7116 1.77252 16.0058 1.92377 16.2674C2.07543 16.5283 2.26127 16.7958 2.42585 17.0187C2.92752 17.6991 3.77585 17.9578 4.5496 17.7649C4.84085 17.6924 5.20793 17.6003 5.6371 17.4903L5.70002 17.7258C6.10002 19.2141 7.63293 20.0937 9.12085 19.6966C10.6096 19.2987 11.4971 17.7708 11.0967 16.2816L11.03 16.032C12.7383 15.5433 14.5717 14.9908 16.3175 14.4103C16.4253 14.5823 16.5921 14.709 16.7867 14.7667C16.9812 14.8244 17.1902 14.8091 17.3743 14.7237C17.5584 14.6383 17.705 14.4886 17.7866 14.3028C17.8682 14.117 17.8792 13.9078 17.8175 13.7145L17.4025 13.8462L17.8171 13.7141V13.7137L17.8163 13.7124L17.8158 13.7099L17.8133 13.7033L17.8067 13.6833L17.7842 13.6183C17.7647 13.5635 17.735 13.4846 17.695 13.3816C17.6142 13.1758 17.4867 12.8708 17.2963 12.4574C16.915 11.6308 16.2792 10.3683 15.25 8.59075C14.2208 6.81325 13.4417 5.63367 12.9142 4.89117C12.7207 4.61682 12.5195 4.34796 12.3109 4.08492C12.2438 4.00103 12.175 3.91851 12.1046 3.83742L12.0908 3.822L12.0859 3.81659L12.0842 3.8145L12.0834 3.81325ZM9.42502 16.4833C8.64668 16.6983 7.91377 16.8958 7.25002 17.0708L7.3096 17.2933C7.38793 17.5814 7.57734 17.8267 7.83628 17.9753C8.09522 18.124 8.40255 18.1638 8.69085 18.0862C8.83329 18.0485 8.9669 17.983 9.08403 17.8937C9.20116 17.8043 9.29951 17.6927 9.37347 17.5652C9.44743 17.4378 9.49553 17.297 9.51503 17.151C9.53452 17.0049 9.52503 16.8565 9.4871 16.7141L9.42502 16.4833Z" fill="#141D35"/>
</svg>
