<svg width="20" height="20" viewBox="0 0 20 20" fill="none" xmlns="http://www.w3.org/2000/svg">
<path d="M1.66669 9.99992C1.66669 6.85742 1.66669 5.28575 2.64335 4.30992C3.62002 3.33409 5.19085 3.33325 8.33335 3.33325H11.6667C14.8092 3.33325 16.3809 3.33325 17.3567 4.30992C18.3325 5.28659 18.3334 6.85742 18.3334 9.99992C18.3334 13.1424 18.3334 14.7141 17.3567 15.6899C16.38 16.6658 14.8092 16.6666 11.6667 16.6666H8.33335C5.19085 16.6666 3.61919 16.6666 2.64335 15.6899C1.66752 14.7133 1.66669 13.1424 1.66669 9.99992Z" stroke="#141D35" stroke-width="1.5"/>
<path d="M5 6.6665L6.79917 8.1665C8.33 9.4415 9.095 10.079 10 10.079C10.905 10.079 11.6708 9.4415 13.2008 8.16567L15 6.6665" stroke="#141D35" stroke-width="1.5" stroke-linecap="round"/>
</svg>
