<svg width="22" height="22" viewBox="0 0 22 22" fill="none" xmlns="http://www.w3.org/2000/svg">
<path d="M11.5 8.6C12.1148 8.6 12.7045 8.85286 13.1392 9.30294C13.5739 9.75303 13.8182 10.3635 13.8182 11C13.8182 11.6365 13.5739 12.247 13.1392 12.6971C12.7045 13.1471 12.1148 13.4 11.5 13.4C10.8852 13.4 10.2955 13.1471 9.8608 12.6971C9.42605 12.247 9.18182 11.6365 9.18182 11C9.18182 10.3635 9.42605 9.75303 9.8608 9.30294C10.2955 8.85286 10.8852 8.6 11.5 8.6ZM11.5 5C15.3636 5 18.6632 7.488 20 11C18.6632 14.512 15.3636 17 11.5 17C7.63636 17 4.33682 14.512 3 11C4.33682 7.488 7.63636 5 11.5 5ZM4.68455 11C5.30911 12.3202 6.27892 13.4326 7.48373 14.2106C8.68855 14.9886 10.08 15.4011 11.5 15.4011C12.92 15.4011 14.3115 14.9886 15.5163 14.2106C16.7211 13.4326 17.6909 12.3202 18.3155 11C17.6909 9.67975 16.7211 8.5674 15.5163 7.7894C14.3115 7.01139 12.92 6.59894 11.5 6.59894C10.08 6.59894 8.68855 7.01139 7.48373 7.7894C6.27892 8.5674 5.30911 9.67975 4.68455 11Z" fill="#141D35"/>
</svg>
