<svg width="22" height="22" viewBox="0 0 22 22" fill="none" xmlns="http://www.w3.org/2000/svg">
<path d="M4.31476 3.01858C4.14187 2.8516 3.91032 2.75921 3.66997 2.7613C3.42963 2.76338 3.19972 2.85979 3.02976 3.02975C2.8598 3.1997 2.7634 3.42962 2.76131 3.66996C2.75922 3.91031 2.85161 4.14186 3.01859 4.31475L5.24059 6.53675C3.92976 7.52308 2.78576 8.87791 1.93051 10.5902C1.86693 10.7175 1.83383 10.8578 1.83383 11C1.83383 11.1422 1.86693 11.2825 1.93051 11.4097C3.90868 15.367 7.42134 17.4167 11 17.4167C12.4254 17.4167 13.8417 17.0912 15.1525 16.4496L17.6853 18.9814C17.8581 19.1484 18.0897 19.2408 18.33 19.2387C18.5704 19.2366 18.8003 19.1402 18.9703 18.9702C19.1402 18.8003 19.2366 18.5704 19.2387 18.33C19.2408 18.0897 19.1484 17.8581 18.9814 17.6852L4.31476 3.01858ZM13.7628 15.059C12.8645 15.4101 11.9295 15.5833 11 15.5833C8.27843 15.5833 5.49818 14.0983 3.78584 11C4.53476 9.64425 5.48901 8.59833 6.55234 7.84941L8.51767 9.81475C8.27209 10.328 8.19177 10.9049 8.28779 11.4657C8.38381 12.0266 8.65145 12.5438 9.05381 12.9462C9.45616 13.3486 9.97342 13.6162 10.5343 13.7122C11.0951 13.8082 11.672 13.7279 12.1853 13.4823L13.7628 15.059ZM17.006 12.738C17.4488 12.2283 17.8548 11.6499 18.2142 11C16.5018 7.90166 13.7225 6.41666 11 6.41666C10.8973 6.41666 10.7947 6.4188 10.692 6.42308L9.05576 4.78775C9.69492 4.65186 10.3466 4.58334 11 4.58333C14.5778 4.58333 18.0913 6.633 20.0695 10.5902C20.1331 10.7175 20.1662 10.8578 20.1662 11C20.1662 11.1422 20.1331 11.2825 20.0695 11.4097C19.6007 12.3597 19.0072 13.2429 18.3049 14.036L17.006 12.738Z" fill="#141D35"/>
</svg>
