<svg width="32" height="32" viewBox="0 0 32 32" fill="none" xmlns="http://www.w3.org/2000/svg">
<path d="M27 12V14H28V18C28 18.7956 27.6839 19.5587 27.1213 20.1213C26.5587 20.6839 25.7956 21 25 21C24.2043 21 23.4413 20.6839 22.8787 20.1213C22.3161 19.5587 22 18.7956 22 18V14H23V12H20V18C20.0019 19.152 20.4007 20.2681 21.1293 21.1605C21.8578 22.0528 22.8717 22.6668 24 22.899V24C24 25.0609 23.5786 26.0783 22.8284 26.8284C22.0783 27.5786 21.0609 28 20 28C18.9391 28 17.9217 27.5786 17.1716 26.8284C16.4214 26.0783 16 25.0609 16 24V21.816C16.6672 21.5801 17.2296 21.1159 17.5876 20.5055C17.9457 19.8951 18.0765 19.1778 17.9568 18.4803C17.8371 17.7828 17.4747 17.15 16.9337 16.6939C16.3926 16.2378 15.7077 15.9876 15 15.9876C14.2923 15.9876 13.6074 16.2378 13.0663 16.6939C12.5253 17.15 12.1629 17.7828 12.0432 18.4803C11.9235 19.1778 12.0543 19.8951 12.4124 20.5055C12.7704 21.1159 13.3328 21.5801 14 21.816V24C14 25.5913 14.6321 27.1174 15.7574 28.2426C16.8826 29.3679 18.4087 30 20 30C21.5913 30 23.1174 29.3679 24.2426 28.2426C25.3679 27.1174 26 25.5913 26 24V22.899C27.1283 22.6668 28.1422 22.0528 28.8707 21.1605C29.5993 20.2681 29.9981 19.152 30 18V12H27ZM15 18C15.1978 18 15.3911 18.0586 15.5556 18.1685C15.72 18.2784 15.8482 18.4346 15.9239 18.6173C15.9996 18.8 16.0194 19.0011 15.9808 19.1951C15.9422 19.3891 15.847 19.5673 15.7071 19.7071C15.5673 19.847 15.3891 19.9422 15.1951 19.9808C15.0011 20.0194 14.8 19.9996 14.6173 19.9239C14.4346 19.8482 14.2784 19.72 14.1685 19.5556C14.0586 19.3911 14 19.1978 14 19C14 18.7348 14.1054 18.4804 14.2929 18.2929C14.4804 18.1054 14.7348 18 15 18Z" fill="#141D35"/>
<path d="M26 4H22V2H20V4H12V2H10V4H6C5.46957 4 4.96086 4.21071 4.58579 4.58579C4.21071 4.96086 4 5.46957 4 6V26C4 26.5304 4.21071 27.0391 4.58579 27.4142C4.96086 27.7893 5.46957 28 6 28H10V26H6V6H10V8H12V6H20V8H22V6H26V10H28V6C28 5.46957 27.7893 4.96086 27.4142 4.58579C27.0391 4.21071 26.5304 4 26 4Z" fill="#141D35"/>
</svg>
