<svg width="24" height="24" viewBox="0 0 24 24" fill="none" xmlns="http://www.w3.org/2000/svg">
<path d="M22 12.5C22 12.009 21.995 11.017 21.984 10.524C21.919 7.45896 21.886 5.92596 20.755 4.79096C19.624 3.65496 18.05 3.61596 14.901 3.53696C12.9673 3.48817 11.0327 3.48817 9.099 3.53696C5.95 3.61596 4.37599 3.65496 3.24499 4.79096C2.11399 5.92596 2.081 7.45896 2.015 10.524C1.99394 11.5078 1.99394 12.4921 2.015 13.476C2.081 16.541 2.11399 18.074 3.24499 19.209C4.37599 20.345 5.95 20.384 9.099 20.463C9.90166 20.483 10.702 20.495 11.5 20.499" stroke="#1E56A0" stroke-width="1.5" stroke-linecap="round" stroke-linejoin="round"/>
<path d="M2 6L8.913 9.925C11.439 11.358 12.561 11.358 15.087 9.925L22 6M14 17.5H22M14 17.5C14 16.8 15.994 15.492 16.5 15M14 17.5C14 18.2 15.994 19.509 16.5 20" stroke="#1E56A0" stroke-width="1.5" stroke-linecap="round" stroke-linejoin="round"/>
</svg>
