<svg width="20" height="20" viewBox="0 0 20 20" fill="none" xmlns="http://www.w3.org/2000/svg">
<path d="M9.68752 2.5C9.43888 2.5 9.20043 2.59877 9.02461 2.77459C8.8488 2.9504 8.75002 3.18886 8.75002 3.4375C8.75002 3.68614 8.8488 3.9246 9.02461 4.10041C9.20043 4.27623 9.43888 4.375 9.68752 4.375H11.875V5.31375C11.875 5.795 11.7538 6.1625 11.5913 6.3825C11.4525 6.57125 11.2625 6.69125 10.9475 6.69125C10.6989 6.69125 10.4604 6.79002 10.2846 6.96584C10.1088 7.14165 10.01 7.38011 10.01 7.62875C10.01 7.87739 10.1088 8.11585 10.2846 8.29166C10.4604 8.46748 10.6989 8.56625 10.9475 8.56625C11.3667 8.57427 11.7816 8.48082 12.1568 8.29385C12.532 8.10689 12.8565 7.83196 13.1025 7.4925C13.5613 6.8675 13.75 6.0775 13.75 5.31375V3.4375C13.75 3.18886 13.6513 2.9504 13.4754 2.77459C13.2996 2.59877 13.0612 2.5 12.8125 2.5H9.68752ZM8.37252 5.90625C8.30363 5.73099 8.18354 5.58054 8.02792 5.4745C7.87229 5.36846 7.68834 5.31175 7.50002 5.31175C7.31171 5.31175 7.12776 5.36846 6.97213 5.4745C6.81651 5.58054 6.69642 5.73099 6.62752 5.90625L2.56002 16.2188C2.51116 16.334 2.48586 16.4578 2.4856 16.5829C2.48534 16.708 2.51014 16.832 2.55852 16.9474C2.60691 17.0628 2.67791 17.1673 2.76734 17.2548C2.85677 17.3424 2.96282 17.4111 3.07923 17.457C3.19565 17.5029 3.32007 17.525 3.44517 17.5221C3.57027 17.5191 3.69351 17.4912 3.80764 17.4398C3.92176 17.3885 4.02445 17.3149 4.10966 17.2232C4.19487 17.1316 4.26087 17.0238 4.30377 16.9062L5.30253 14.3763H9.69378L10.69 16.9062C10.7812 17.1377 10.9606 17.3234 11.1886 17.4225C11.4167 17.5217 11.6749 17.5262 11.9063 17.435C12.1377 17.3438 12.3234 17.1645 12.4225 16.9364C12.5217 16.7083 12.5262 16.4502 12.435 16.2188L8.37252 5.90625ZM8.95502 12.5013H6.04252L7.50002 8.80625L8.95502 12.5013ZM15.9375 2.5C16.1862 2.5 16.4246 2.59877 16.6004 2.77459C16.7763 2.9504 16.875 3.18886 16.875 3.4375V6.2475H17.1875C17.4362 6.2475 17.6746 6.34627 17.8504 6.52209C18.0263 6.6979 18.125 6.93636 18.125 7.185C18.125 7.43364 18.0263 7.6721 17.8504 7.84791C17.6746 8.02373 17.4362 8.1225 17.1875 8.1225H16.875V12.8112C16.875 13.0599 16.7763 13.2983 16.6004 13.4742C16.4246 13.65 16.1862 13.7487 15.9375 13.7487C15.6889 13.7487 15.4504 13.65 15.2746 13.4742C15.0988 13.2983 15 13.0599 15 12.8112V3.4375C15 3.18886 15.0988 2.9504 15.2746 2.77459C15.4504 2.59877 15.6889 2.5 15.9375 2.5Z" fill="#141D35"/>
</svg>
