<svg width="31" height="31" viewBox="0 0 31 31" fill="none" xmlns="http://www.w3.org/2000/svg">
<path d="M15.1692 5.05639C13.9958 5.05639 12.8704 5.52253 12.0407 6.35225C11.211 7.18198 10.7448 8.30733 10.7448 9.48074C10.7448 10.6541 11.211 11.7795 12.0407 12.6092C12.8704 13.4389 13.9958 13.9051 15.1692 13.9051C16.3426 13.9051 17.4679 13.4389 18.2977 12.6092C19.1274 11.7795 19.5935 10.6541 19.5935 9.48074C19.5935 8.30733 19.1274 7.18198 18.2977 6.35225C17.4679 5.52253 16.3426 5.05639 15.1692 5.05639ZM8.21664 9.48074C8.21664 7.63681 8.94914 5.8684 10.253 4.56455C11.5568 3.26069 13.3253 2.5282 15.1692 2.5282C17.0131 2.5282 18.7815 3.26069 20.0854 4.56455C21.3892 5.8684 22.1217 7.63681 22.1217 9.48074C22.1217 11.3247 21.3892 13.0931 20.0854 14.3969C18.7815 15.7008 17.0131 16.4333 15.1692 16.4333C13.3253 16.4333 11.5568 15.7008 10.253 14.3969C8.94914 13.0931 8.21664 11.3247 8.21664 9.48074ZM3.7923 24.0179C3.7923 22.3416 4.4582 20.7339 5.64353 19.5486C6.82885 18.3633 8.43649 17.6974 10.1128 17.6974H20.2256C21.9019 17.6974 23.5095 18.3633 24.6948 19.5486C25.8802 20.7339 26.5461 22.3416 26.5461 24.0179V27.8102H3.7923V24.0179ZM10.1128 20.2256C9.10701 20.2256 8.14243 20.6251 7.43123 21.3363C6.72004 22.0475 6.32049 23.0121 6.32049 24.0179V25.282H24.0179V24.0179C24.0179 23.0121 23.6183 22.0475 22.9071 21.3363C22.1959 20.6251 21.2314 20.2256 20.2256 20.2256H10.1128Z" fill="#403230"/>
</svg>
