<svg width="31" height="31" viewBox="0 0 31 31" fill="none" xmlns="http://www.w3.org/2000/svg">
<path d="M8.88889 10.05C8.88889 8.44544 9.53274 6.9066 10.6788 5.772C11.8248 4.63741 13.3792 4 15 4C16.6208 4 18.1752 4.63741 19.3212 5.772C20.4673 6.9066 21.1111 8.44544 21.1111 10.05C21.1111 11.6546 20.4673 13.1934 19.3212 14.328C18.1752 15.4626 16.6208 16.1 15 16.1C13.3792 16.1 11.8248 15.4626 10.6788 14.328C9.53274 13.1934 8.88889 11.6546 8.88889 10.05ZM5 22.7C5 21.2413 5.58532 19.8424 6.62718 18.8109C7.66905 17.7795 9.08213 17.2 10.5556 17.2H19.4444C20.9179 17.2 22.3309 17.7795 23.3728 18.8109C24.4147 19.8424 25 21.2413 25 22.7V26H5V22.7Z" fill="#141D35"/>
</svg>
