<svg width="31" height="31" viewBox="0 0 31 31" fill="none" xmlns="http://www.w3.org/2000/svg">
<path d="M15.6348 6.40388C14.6034 6.40388 13.6143 6.82794 12.885 7.58278C12.1557 8.33761 11.7459 9.36139 11.7459 10.4289C11.7459 11.4964 12.1557 12.5202 12.885 13.275C13.6143 14.0298 14.6034 14.4539 15.6348 14.4539C16.6662 14.4539 17.6554 14.0298 18.3847 13.275C19.114 12.5202 19.5237 11.4964 19.5237 10.4289C19.5237 9.36139 19.114 8.33761 18.3847 7.58278C17.6554 6.82794 16.6662 6.40388 15.6348 6.40388ZM9.52372 10.4289C9.52372 8.75139 10.1676 7.1426 11.3136 5.95643C12.4597 4.77026 14.0141 4.10388 15.6348 4.10388C17.2556 4.10388 18.81 4.77026 19.956 5.95643C21.1021 7.1426 21.7459 8.75139 21.7459 10.4289C21.7459 12.1064 21.1021 13.7152 19.956 14.9013C18.81 16.0875 17.2556 16.7539 15.6348 16.7539C14.0141 16.7539 12.4597 16.0875 11.3136 14.9013C10.1676 13.7152 9.52372 12.1064 9.52372 10.4289ZM5.63483 23.6539C5.63483 22.1289 6.22014 20.6664 7.26201 19.588C8.30388 18.5097 9.71696 17.9039 11.1904 17.9039H20.0793C21.5527 17.9039 22.9658 18.5097 24.0076 19.588C25.0495 20.6664 25.6348 22.1289 25.6348 23.6539V27.1039H5.63483V23.6539ZM11.1904 20.2039C10.3063 20.2039 9.45848 20.5674 8.83336 21.2144C8.20824 21.8614 7.85705 22.7389 7.85705 23.6539V24.8039H23.4126V23.6539C23.4126 22.7389 23.0614 21.8614 22.4363 21.2144C21.8112 20.5674 20.9633 20.2039 20.0793 20.2039H11.1904Z" fill="#141D35"/>
</svg>
