<svg width="16" height="16" viewBox="0 0 16 16" fill="none" xmlns="http://www.w3.org/2000/svg">
<path d="M8.36033 2.13968C8.736 1.80268 9.33333 2.06901 9.33333 2.57334V13.4267C9.33333 13.9313 8.736 14.1977 8.36033 13.8607L5.625 11.4053C5.33449 11.1444 4.95781 11.0001 4.56733 11H3C2.53587 11 2.09075 10.8156 1.76256 10.4874C1.43437 10.1593 1.25 9.71414 1.25 9.25001V6.75001C1.25 5.78334 2.03333 5.00001 3 5.00001H4.56733C4.95781 4.99994 5.33449 4.85558 5.625 4.59468L8.36033 2.13968ZM12.1127 2.79868C12.1882 2.7181 12.2926 2.6708 12.403 2.66717C12.5134 2.66355 12.6207 2.70389 12.7013 2.77934L12.702 2.78001L12.703 2.78068L12.705 2.78268L12.7113 2.78868L12.7313 2.80801C12.7478 2.82468 12.7702 2.84801 12.7987 2.87801C12.8553 2.93768 12.9333 3.02468 13.026 3.13868C13.2792 3.452 13.5041 3.78721 13.698 4.14034C14.184 5.01968 14.6667 6.31768 14.6667 8.00001C14.6667 9.68234 14.184 10.98 13.698 11.86C13.5041 12.213 13.2792 12.5481 13.026 12.8613C12.9326 12.9759 12.8342 13.0862 12.731 13.192L12.711 13.2113L12.705 13.2173L12.703 13.2193L12.702 13.22C12.702 13.22 12.922 13 12.7013 13.2203C12.6203 13.2932 12.514 13.3315 12.4051 13.3269C12.2962 13.3224 12.1935 13.2753 12.1189 13.1959C12.0443 13.1164 12.0037 13.0109 12.006 12.902C12.0083 12.793 12.0532 12.6893 12.131 12.613L12.1317 12.6127L12.1327 12.6117L12.1433 12.601C12.1538 12.5908 12.1701 12.5741 12.1923 12.551C12.236 12.5043 12.301 12.4323 12.38 12.335C12.6017 12.0601 12.7987 11.7662 12.9687 11.4567C13.3993 10.678 13.8333 9.51768 13.8333 8.00001C13.8333 6.48234 13.3993 5.32201 12.9687 4.54334C12.7987 4.2337 12.6017 3.93967 12.38 3.66468C12.3051 3.57254 12.2261 3.48379 12.1433 3.39868L12.1327 3.38801L12.1317 3.38701L12.131 3.38634C12.0508 3.31071 12.0038 3.20635 12.0003 3.09613C11.9969 2.98592 12.0373 2.87917 12.1127 2.79868ZM10.778 4.80001C10.8152 4.75988 10.86 4.72747 10.9097 4.70465C10.9595 4.68182 11.0132 4.66902 11.0679 4.66698C11.1226 4.66494 11.1772 4.67369 11.2285 4.69274C11.2798 4.71179 11.3269 4.74077 11.367 4.77801L11.3883 4.79868L11.367 4.77868L11.368 4.77934L11.3697 4.78101L11.3743 4.78501L11.3883 4.79868C11.3997 4.80979 11.4149 4.82523 11.434 4.84501C11.4717 4.88434 11.5237 4.94068 11.5847 5.01334C11.7067 5.15868 11.867 5.37068 12.0267 5.64434C12.4452 6.35887 12.6661 7.17191 12.6667 8.00001C12.6667 9.00768 12.3457 9.80868 12.0267 10.356C11.8667 10.6293 11.7067 10.8417 11.5847 10.987C11.5223 11.0614 11.4567 11.133 11.388 11.2017L11.3817 11.208L11.3743 11.215L11.3697 11.2193L11.368 11.221L11.367 11.222C11.2859 11.2954 11.1791 11.334 11.0698 11.3294C10.9604 11.3248 10.8573 11.2773 10.7827 11.1973C10.708 11.1173 10.6679 11.0111 10.6709 10.9017C10.6739 10.7923 10.7198 10.6885 10.7987 10.6127L10.7993 10.612L10.8047 10.6067L10.833 10.578C10.8721 10.5369 10.9099 10.4945 10.9463 10.451C11.043 10.3357 11.1747 10.1623 11.3067 9.93601C11.651 9.34888 11.8328 8.68066 11.8333 8.00001C11.8333 7.17434 11.571 6.51701 11.3067 6.06434C11.1747 5.83768 11.0433 5.66434 10.9467 5.54934C10.9014 5.4956 10.854 5.44368 10.8047 5.39368L10.799 5.38801L10.7993 5.38834C10.7186 5.3131 10.671 5.20889 10.667 5.09859C10.663 4.98829 10.7029 4.8809 10.778 4.80001Z" fill="#F6F6F6"/>
</svg>
