<svg width="32" height="32" viewBox="0 0 32 32" fill="none" xmlns="http://www.w3.org/2000/svg">
<path d="M21.3333 22.6667V25.3333C21.3333 26.0406 21.0524 26.7189 20.5523 27.219C20.0522 27.719 19.3739 28 18.6667 28H6.66667C5.95942 28 5.28115 27.719 4.78105 27.219C4.28095 26.7189 4 26.0406 4 25.3333V6.66667C4 5.95942 4.28095 5.28115 4.78105 4.78105C5.28115 4.28095 5.95942 4 6.66667 4H18.6667C19.3739 4 20.0522 4.28095 20.5523 4.78105C21.0524 5.28115 21.3333 5.95942 21.3333 6.66667V9.33333H18.6667V6.66667H6.66667V25.3333H18.6667V22.6667H21.3333ZM24.6667 8.66667L22.7813 10.552L26.896 14.6667H13.3333V17.3333H26.896L22.7813 21.448L24.6667 23.3333L32 16L24.6667 8.66667Z" fill="#F6F6F6"/>
</svg>
